<?xml version="1.0"?>
<!-- Generated by SVGo -->
<svg width="601.501mm" height="144.301mm"
     viewBox="0.000 0.000 601.501 144.301"
     xmlns="http://www.w3.org/2000/svg" 
     xmlns:xlink="http://www.w3.org/1999/xlink">
<polygon points="596.501,139.301 5.000,139.301 5.000,5.000 596.501,5.000" style="fill:none;stroke-width:0.050000mm;stroke:black"/>
<polygon points="591.882,133.398 591.325,133.682 590.882,134.125 590.598,134.682 590.501,135.301 590.598,135.919 590.882,136.476 591.325,136.919 591.882,137.203 592.501,137.301 593.119,137.203 593.676,136.919 594.119,136.476 594.403,135.919 594.501,135.301 594.403,134.682 594.119,134.125 593.676,133.682 593.119,133.398 592.501,133.301" style="fill:none;stroke-width:0.050000mm;stroke:black"/>
<polygon points="475.182,133.398 474.625,133.682 474.182,134.125 473.898,134.682 473.800,135.301 473.898,135.919 474.182,136.476 474.625,136.919 475.182,137.203 475.800,137.301 476.418,137.203 476.976,136.919 477.418,136.476 477.702,135.919 477.800,135.301 477.702,134.682 477.418,134.125 476.976,133.682 476.418,133.398 475.800,133.301" style="fill:none;stroke-width:0.050000mm;stroke:black"/>
<polygon points="358.482,133.398 357.925,133.682 357.482,134.125 357.198,134.682 357.100,135.301 357.198,135.919 357.482,136.476 357.925,136.919 358.482,137.203 359.100,137.301 359.718,137.203 360.276,136.919 360.718,136.476 361.002,135.919 361.100,135.301 361.002,134.682 360.718,134.125 360.276,133.682 359.718,133.398 359.100,133.301" style="fill:none;stroke-width:0.050000mm;stroke:black"/>
<polygon points="241.782,133.398 241.224,133.682 240.782,134.125 240.498,134.682 240.400,135.301 240.498,135.919 240.782,136.476 241.224,136.919 241.782,137.203 242.400,137.301 243.018,137.203 243.575,136.919 244.018,136.476 244.302,135.919 244.400,135.301 244.302,134.682 244.018,134.125 243.575,133.682 243.018,133.398 242.400,133.301" style="fill:none;stroke-width:0.050000mm;stroke:black"/>
<polygon points="125.082,133.398 124.524,133.682 124.082,134.125 123.798,134.682 123.700,135.301 123.798,135.919 124.082,136.476 124.524,136.919 125.082,137.203 125.700,137.301 126.318,137.203 126.875,136.919 127.318,136.476 127.602,135.919 127.700,135.301 127.602,134.682 127.318,134.125 126.875,133.682 126.318,133.398 125.700,133.301" style="fill:none;stroke-width:0.050000mm;stroke:black"/>
<polygon points="8.381,133.398 7.824,133.682 7.381,134.125 7.097,134.682 6.999,135.301 7.097,135.919 7.381,136.476 7.824,136.919 8.381,137.203 9.000,137.301 9.618,137.203 10.175,136.919 10.618,136.476 10.902,135.919 11.000,135.301 10.902,134.682 10.618,134.125 10.175,133.682 9.618,133.398 9.000,133.301" style="fill:none;stroke-width:0.050000mm;stroke:black"/>
<polygon points="13.000,13.000 13.000,131.301 588.501,131.301 588.501,13.000" style="fill:none;stroke-width:0.050000mm;stroke:black"/>
<polygon points="125.082,7.097 124.524,7.381 124.082,7.824 123.798,8.381 123.700,9.000 123.798,9.618 124.082,10.175 124.524,10.618 125.082,10.902 125.700,11.000 126.318,10.902 126.875,10.618 127.318,10.175 127.602,9.618 127.700,9.000 127.602,8.381 127.318,7.824 126.875,7.381 126.318,7.097 125.700,7.000" style="fill:none;stroke-width:0.050000mm;stroke:black"/>
<polygon points="241.782,7.097 241.224,7.381 240.782,7.824 240.498,8.381 240.400,9.000 240.498,9.618 240.782,10.175 241.224,10.618 241.782,10.902 242.400,11.000 243.018,10.902 243.575,10.618 244.018,10.175 244.302,9.618 244.400,9.000 244.302,8.381 244.018,7.824 243.575,7.381 243.018,7.097 242.400,7.000" style="fill:none;stroke-width:0.050000mm;stroke:black"/>
<polygon points="358.482,7.097 357.925,7.381 357.482,7.824 357.198,8.381 357.100,9.000 357.198,9.618 357.482,10.175 357.925,10.618 358.482,10.902 359.100,11.000 359.718,10.902 360.276,10.618 360.718,10.175 361.002,9.618 361.100,9.000 361.002,8.381 360.718,7.824 360.276,7.381 359.718,7.097 359.100,7.000" style="fill:none;stroke-width:0.050000mm;stroke:black"/>
<polygon points="475.182,7.097 474.625,7.381 474.182,7.824 473.898,8.381 473.800,9.000 473.898,9.618 474.182,10.175 474.625,10.618 475.182,10.902 475.800,11.000 476.418,10.902 476.976,10.618 477.418,10.175 477.702,9.618 477.800,9.000 477.702,8.381 477.418,7.824 476.976,7.381 476.418,7.097 475.800,7.000" style="fill:none;stroke-width:0.050000mm;stroke:black"/>
<polygon points="591.882,7.097 591.325,7.381 590.882,7.824 590.598,8.381 590.501,9.000 590.598,9.618 590.882,10.175 591.325,10.618 591.882,10.902 592.501,11.000 593.119,10.902 593.676,10.618 594.119,10.175 594.403,9.618 594.501,9.000 594.403,8.381 594.119,7.824 593.676,7.381 593.119,7.097 592.501,7.000" style="fill:none;stroke-width:0.050000mm;stroke:black"/>
<polygon points="8.381,7.097 7.824,7.381 7.381,7.824 7.097,8.381 6.999,9.000 7.097,9.618 7.381,10.175 7.824,10.618 8.381,10.902 9.000,11.000 9.618,10.902 10.175,10.618 10.618,10.175 10.902,9.618 11.000,9.000 10.902,8.381 10.618,7.824 10.175,7.381 9.618,7.097 9.000,7.000" style="fill:none;stroke-width:0.050000mm;stroke:black"/>
</svg>
