<?xml version="1.0"?>
<!-- Generated by SVGo -->
<svg width="601.501mm" height="144.301mm"
     viewBox="0.000 0.000 601.501 144.301"
     xmlns="http://www.w3.org/2000/svg" 
     xmlns:xlink="http://www.w3.org/1999/xlink">
<polygon points="596.501,139.301 5.000,139.301 5.000,5.000 596.501,5.000" style="fill:none;stroke-width:0.050000mm;stroke:black"/>
<polygon points="591.882,133.398 591.325,133.682 590.882,134.125 590.598,134.682 590.501,135.301 590.598,135.919 590.882,136.476 591.325,136.919 591.882,137.203 592.501,137.301 593.119,137.203 593.676,136.919 594.119,136.476 594.403,135.919 594.501,135.301 594.403,134.682 594.119,134.125 593.676,133.682 593.119,133.398 592.501,133.301" style="fill:none;stroke-width:0.050000mm;stroke:black"/>
<polygon points="475.182,133.398 474.625,133.682 474.182,134.125 473.898,134.682 473.800,135.301 473.898,135.919 474.182,136.476 474.625,136.919 475.182,137.203 475.800,137.301 476.418,137.203 476.976,136.919 477.418,136.476 477.702,135.919 477.800,135.301 477.702,134.682 477.418,134.125 476.976,133.682 476.418,133.398 475.800,133.301" style="fill:none;stroke-width:0.050000mm;stroke:black"/>
<polygon points="358.482,133.398 357.925,133.682 357.482,134.125 357.198,134.682 357.100,135.301 357.198,135.919 357.482,136.476 357.925,136.919 358.482,137.203 359.100,137.301 359.718,137.203 360.276,136.919 360.718,136.476 361.002,135.919 361.100,135.301 361.002,134.682 360.718,134.125 360.276,133.682 359.718,133.398 359.100,133.301" style="fill:none;stroke-width:0.050000mm;stroke:black"/>
<polygon points="241.782,133.398 241.224,133.682 240.782,134.125 240.498,134.682 240.400,135.301 240.498,135.919 240.782,136.476 241.224,136.919 241.782,137.203 242.400,137.301 243.018,137.203 243.575,136.919 244.018,136.476 244.302,135.919 244.400,135.301 244.302,134.682 244.018,134.125 243.575,133.682 243.018,133.398 242.400,133.301" style="fill:none;stroke-width:0.050000mm;stroke:black"/>
<polygon points="125.082,133.398 124.524,133.682 124.082,134.125 123.798,134.682 123.700,135.301 123.798,135.919 124.082,136.476 124.524,136.919 125.082,137.203 125.700,137.301 126.318,137.203 126.875,136.919 127.318,136.476 127.602,135.919 127.700,135.301 127.602,134.682 127.318,134.125 126.875,133.682 126.318,133.398 125.700,133.301" style="fill:none;stroke-width:0.050000mm;stroke:black"/>
<polygon points="8.381,133.398 7.824,133.682 7.381,134.125 7.097,134.682 6.999,135.301 7.097,135.919 7.381,136.476 7.824,136.919 8.381,137.203 9.000,137.301 9.618,137.203 10.175,136.919 10.618,136.476 10.902,135.919 11.000,135.301 10.902,134.682 10.618,134.125 10.175,133.682 9.618,133.398 9.000,133.301" style="fill:none;stroke-width:0.050000mm;stroke:black"/>
<polygon points="112.775,112.775 112.775,117.475 111.250,117.475 111.250,114.245 109.525,114.245 109.525,113.325 106.225,113.325 106.225,114.245 104.500,114.245 104.500,117.475 103.675,117.475 103.675,120.275 104.500,120.275 104.500,126.545 106.225,126.545 106.225,127.525 109.525,127.525 109.525,126.545 111.250,126.545 111.250,122.075 112.775,122.075 112.775,126.775 126.775,126.775 126.775,122.075 128.300,122.075 128.300,126.545 130.025,126.545 130.025,127.525 133.325,127.525 133.325,126.545 135.050,126.545 135.050,120.275 135.875,120.275 135.875,117.475 135.050,117.475 135.050,114.245 133.325,114.245 133.325,113.325 130.025,113.325 130.025,114.245 128.300,114.245 128.300,117.475 126.775,117.475 126.775,112.775" style="fill:none;stroke-width:0.050000mm;stroke:black"/>
<polygon points="305.656,112.775 305.656,117.475 304.131,117.475 304.131,114.245 302.406,114.245 302.406,113.325 299.106,113.325 299.106,114.245 297.381,114.245 297.381,117.475 296.556,117.475 296.556,120.275 297.381,120.275 297.381,126.545 299.106,126.545 299.106,127.525 302.406,127.525 302.406,126.545 304.131,126.545 304.131,122.075 305.656,122.075 305.656,126.775 319.656,126.775 319.656,122.075 321.181,122.075 321.181,126.545 322.906,126.545 322.906,127.525 326.206,127.525 326.206,126.545 327.931,126.545 327.931,120.275 328.756,120.275 328.756,117.475 327.931,117.475 327.931,114.245 326.206,114.245 326.206,113.325 322.906,113.325 322.906,114.245 321.181,114.245 321.181,117.475 319.656,117.475 319.656,112.775" style="fill:none;stroke-width:0.050000mm;stroke:black"/>
<polygon points="522.350,112.775 522.350,117.475 520.825,117.475 520.825,114.245 519.100,114.245 519.100,113.325 515.799,113.325 515.799,114.245 514.075,114.245 514.075,117.475 513.250,117.475 513.250,120.275 514.075,120.275 514.075,126.545 515.799,126.545 515.799,127.525 519.100,127.525 519.100,126.545 520.825,126.545 520.825,122.075 522.350,122.075 522.350,126.775 536.350,126.775 536.350,122.075 537.875,122.075 537.875,126.545 539.600,126.545 539.600,127.525 542.900,127.525 542.900,126.545 544.625,126.545 544.625,120.275 545.450,120.275 545.450,117.475 544.625,117.475 544.625,114.245 542.900,114.245 542.900,113.325 539.600,113.325 539.600,114.245 537.875,114.245 537.875,117.475 536.350,117.475 536.350,112.775" style="fill:none;stroke-width:0.050000mm;stroke:black"/>
<polygon points="17.525,112.775 17.525,126.775 31.525,126.775 31.525,112.775" style="fill:none;stroke-width:0.050000mm;stroke:black"/>
<polygon points="36.575,112.775 36.575,126.775 50.575,126.775 50.575,112.775" style="fill:none;stroke-width:0.050000mm;stroke:black"/>
<polygon points="55.625,112.775 55.625,126.775 69.625,126.775 69.625,112.775" style="fill:none;stroke-width:0.050000mm;stroke:black"/>
<polygon points="74.675,112.775 74.675,126.775 88.675,126.775 88.675,112.775" style="fill:none;stroke-width:0.050000mm;stroke:black"/>
<polygon points="153.256,112.775 153.256,126.775 167.256,126.775 167.256,112.775" style="fill:none;stroke-width:0.050000mm;stroke:black"/>
<polygon points="177.068,112.775 177.068,126.775 191.068,126.775 191.068,112.775" style="fill:none;stroke-width:0.050000mm;stroke:black"/>
<polygon points="200.881,112.775 200.881,126.775 214.881,126.775 214.881,112.775" style="fill:none;stroke-width:0.050000mm;stroke:black"/>
<polygon points="236.600,112.775 236.600,126.775 250.600,126.775 250.600,112.775" style="fill:none;stroke-width:0.050000mm;stroke:black"/>
<polygon points="269.937,112.775 269.937,126.775 283.937,126.775 283.937,112.775" style="fill:none;stroke-width:0.050000mm;stroke:black"/>
<polygon points="343.756,112.775 343.756,126.775 357.756,126.775 357.756,112.775" style="fill:none;stroke-width:0.050000mm;stroke:black"/>
<polygon points="367.568,112.775 367.568,126.775 381.568,126.775 381.568,112.775" style="fill:none;stroke-width:0.050000mm;stroke:black"/>
<polygon points="391.381,112.775 391.381,126.775 405.381,126.775 405.381,112.775" style="fill:none;stroke-width:0.050000mm;stroke:black"/>
<polygon points="415.193,112.775 415.193,126.775 429.193,126.775 429.193,112.775" style="fill:none;stroke-width:0.050000mm;stroke:black"/>
<polygon points="465.200,112.775 465.200,126.775 479.200,126.775 479.200,112.775" style="fill:none;stroke-width:0.050000mm;stroke:black"/>
<polygon points="550.925,112.775 550.925,126.775 564.925,126.775 564.925,112.775" style="fill:none;stroke-width:0.050000mm;stroke:black"/>
<polygon points="576.475,94.150 576.475,94.975 570.205,94.975 570.205,96.700 569.225,96.700 569.225,100.000 570.205,100.000 570.205,101.725 574.675,101.725 574.675,103.250 569.975,103.250 569.975,117.250 574.675,117.250 574.675,118.775 570.205,118.775 570.205,120.500 569.225,120.500 569.225,123.800 570.205,123.800 570.205,125.525 576.475,125.525 576.475,126.350 579.275,126.350 579.275,125.525 582.505,125.525 582.505,123.800 583.425,123.800 583.425,120.500 582.505,120.500 582.505,118.775 579.275,118.775 579.275,117.250 583.975,117.250 583.975,103.250 579.275,103.250 579.275,101.725 582.505,101.725 582.505,100.000 583.425,100.000 583.425,96.700 582.505,96.700 582.505,94.975 579.275,94.975 579.275,94.150" style="fill:none;stroke-width:0.050000mm;stroke:black"/>
<polygon points="162.781,93.725 162.781,98.425 161.256,98.425 161.256,95.195 159.531,95.195 159.531,94.275 156.231,94.275 156.231,95.195 154.506,95.195 154.506,98.425 153.681,98.425 153.681,101.225 154.506,101.225 154.506,107.495 156.231,107.495 156.231,108.475 159.531,108.475 159.531,107.495 161.256,107.495 161.256,103.025 162.781,103.025 162.781,107.725 176.781,107.725 176.781,103.025 178.306,103.025 178.306,107.495 180.031,107.495 180.031,108.475 183.331,108.475 183.331,107.495 185.056,107.495 185.056,101.225 185.881,101.225 185.881,98.425 185.056,98.425 185.056,95.195 183.331,95.195 183.331,94.275 180.031,94.275 180.031,95.195 178.306,95.195 178.306,98.425 176.781,98.425 176.781,93.725" style="fill:none;stroke-width:0.050000mm;stroke:black"/>
<polygon points="17.525,93.725 17.525,107.725 31.525,107.725 31.525,93.725" style="fill:none;stroke-width:0.050000mm;stroke:black"/>
<polygon points="36.575,93.725 36.575,107.725 50.575,107.725 50.575,93.725" style="fill:none;stroke-width:0.050000mm;stroke:black"/>
<polygon points="55.625,93.725 55.625,107.725 69.625,107.725 69.625,93.725" style="fill:none;stroke-width:0.050000mm;stroke:black"/>
<polygon points="74.675,93.725 74.675,107.725 88.675,107.725 88.675,93.725" style="fill:none;stroke-width:0.050000mm;stroke:black"/>
<polygon points="103.250,93.725 103.250,107.725 117.250,107.725 117.250,93.725" style="fill:none;stroke-width:0.050000mm;stroke:black"/>
<polygon points="122.300,93.725 122.300,107.725 136.300,107.725 136.300,93.725" style="fill:none;stroke-width:0.050000mm;stroke:black"/>
<polygon points="193.737,93.725 193.737,107.725 207.737,107.725 207.737,93.725" style="fill:none;stroke-width:0.050000mm;stroke:black"/>
<polygon points="212.787,93.725 212.787,107.725 226.787,107.725 226.787,93.725" style="fill:none;stroke-width:0.050000mm;stroke:black"/>
<polygon points="231.837,93.725 231.837,107.725 245.837,107.725 245.837,93.725" style="fill:none;stroke-width:0.050000mm;stroke:black"/>
<polygon points="250.887,93.725 250.887,107.725 264.887,107.725 264.887,93.725" style="fill:none;stroke-width:0.050000mm;stroke:black"/>
<polygon points="269.937,93.725 269.937,107.725 283.937,107.725 283.937,93.725" style="fill:none;stroke-width:0.050000mm;stroke:black"/>
<polygon points="288.987,93.725 288.987,107.725 302.987,107.725 302.987,93.725" style="fill:none;stroke-width:0.050000mm;stroke:black"/>
<polygon points="308.037,93.725 308.037,107.725 322.037,107.725 322.037,93.725" style="fill:none;stroke-width:0.050000mm;stroke:black"/>
<polygon points="327.087,93.725 327.087,107.725 341.087,107.725 341.087,93.725" style="fill:none;stroke-width:0.050000mm;stroke:black"/>
<polygon points="346.137,93.725 346.137,107.725 360.137,107.725 360.137,93.725" style="fill:none;stroke-width:0.050000mm;stroke:black"/>
<polygon points="365.187,93.725 365.187,107.725 379.187,107.725 379.187,93.725" style="fill:none;stroke-width:0.050000mm;stroke:black"/>
<polygon points="391.381,93.725 391.381,107.725 405.381,107.725 405.381,93.725" style="fill:none;stroke-width:0.050000mm;stroke:black"/>
<polygon points="417.575,93.725 417.575,107.725 431.575,107.725 431.575,93.725" style="fill:none;stroke-width:0.050000mm;stroke:black"/>
<polygon points="446.150,93.725 446.150,107.725 460.150,107.725 460.150,93.725" style="fill:none;stroke-width:0.050000mm;stroke:black"/>
<polygon points="465.200,93.725 465.200,107.725 479.200,107.725 479.200,93.725" style="fill:none;stroke-width:0.050000mm;stroke:black"/>
<polygon points="484.250,93.725 484.250,107.725 498.250,107.725 498.250,93.725" style="fill:none;stroke-width:0.050000mm;stroke:black"/>
<polygon points="512.825,93.725 512.825,107.725 526.825,107.725 526.825,93.725" style="fill:none;stroke-width:0.050000mm;stroke:black"/>
<polygon points="531.875,93.725 531.875,107.725 545.875,107.725 545.875,93.725" style="fill:none;stroke-width:0.050000mm;stroke:black"/>
<polygon points="550.925,93.725 550.925,107.725 564.925,107.725 564.925,93.725" style="fill:none;stroke-width:0.050000mm;stroke:black"/>
<polygon points="17.525,74.675 17.525,88.675 31.525,88.675 31.525,74.675" style="fill:none;stroke-width:0.050000mm;stroke:black"/>
<polygon points="36.575,74.675 36.575,88.675 50.575,88.675 50.575,74.675" style="fill:none;stroke-width:0.050000mm;stroke:black"/>
<polygon points="55.625,74.675 55.625,88.675 69.625,88.675 69.625,74.675" style="fill:none;stroke-width:0.050000mm;stroke:black"/>
<polygon points="74.675,74.675 74.675,88.675 88.675,88.675 88.675,74.675" style="fill:none;stroke-width:0.050000mm;stroke:black"/>
<polygon points="103.250,74.675 103.250,88.675 117.250,88.675 117.250,74.675" style="fill:none;stroke-width:0.050000mm;stroke:black"/>
<polygon points="122.300,74.675 122.300,88.675 136.300,88.675 136.300,74.675" style="fill:none;stroke-width:0.050000mm;stroke:black"/>
<polygon points="158.018,74.675 158.018,88.675 172.018,88.675 172.018,74.675" style="fill:none;stroke-width:0.050000mm;stroke:black"/>
<polygon points="184.212,74.675 184.212,88.675 198.212,88.675 198.212,74.675" style="fill:none;stroke-width:0.050000mm;stroke:black"/>
<polygon points="203.262,74.675 203.262,88.675 217.262,88.675 217.262,74.675" style="fill:none;stroke-width:0.050000mm;stroke:black"/>
<polygon points="222.312,74.675 222.312,88.675 236.312,88.675 236.312,74.675" style="fill:none;stroke-width:0.050000mm;stroke:black"/>
<polygon points="241.362,74.675 241.362,88.675 255.362,88.675 255.362,74.675" style="fill:none;stroke-width:0.050000mm;stroke:black"/>
<polygon points="260.411,74.675 260.411,88.675 274.412,88.675 274.412,74.675" style="fill:none;stroke-width:0.050000mm;stroke:black"/>
<polygon points="279.462,74.675 279.462,88.675 293.462,88.675 293.462,74.675" style="fill:none;stroke-width:0.050000mm;stroke:black"/>
<polygon points="298.512,74.675 298.512,88.675 312.512,88.675 312.512,74.675" style="fill:none;stroke-width:0.050000mm;stroke:black"/>
<polygon points="317.562,74.675 317.562,88.675 331.562,88.675 331.562,74.675" style="fill:none;stroke-width:0.050000mm;stroke:black"/>
<polygon points="336.612,74.675 336.612,88.675 350.612,88.675 350.612,74.675" style="fill:none;stroke-width:0.050000mm;stroke:black"/>
<polygon points="355.662,74.675 355.662,88.675 369.662,88.675 369.662,74.675" style="fill:none;stroke-width:0.050000mm;stroke:black"/>
<polygon points="374.712,74.675 374.712,88.675 388.712,88.675 388.712,74.675" style="fill:none;stroke-width:0.050000mm;stroke:black"/>
<polygon points="393.762,74.675 393.762,88.675 407.762,88.675 407.762,74.675" style="fill:none;stroke-width:0.050000mm;stroke:black"/>
<polygon points="465.200,74.675 465.200,88.675 479.200,88.675 479.200,74.675" style="fill:none;stroke-width:0.050000mm;stroke:black"/>
<polygon points="512.825,74.675 512.825,88.675 526.825,88.675 526.825,74.675" style="fill:none;stroke-width:0.050000mm;stroke:black"/>
<polygon points="531.875,74.675 531.875,88.675 545.875,88.675 545.875,74.675" style="fill:none;stroke-width:0.050000mm;stroke:black"/>
<polygon points="550.925,74.675 550.925,88.675 564.925,88.675 564.925,74.675" style="fill:none;stroke-width:0.050000mm;stroke:black"/>
<polygon points="569.974,74.675 569.974,88.675 583.974,88.675 583.974,74.675" style="fill:none;stroke-width:0.050000mm;stroke:black"/>
<polygon points="421.693,56.050 421.693,56.875 415.423,56.875 415.423,58.600 414.443,58.600 414.443,61.900 415.423,61.900 415.423,63.625 419.893,63.625 419.893,65.150 415.193,65.150 415.193,79.150 419.893,79.150 419.893,80.675 415.423,80.675 415.423,82.400 414.443,82.400 414.443,85.700 415.423,85.700 415.423,87.425 421.693,87.425 421.693,88.250 424.493,88.250 424.493,87.425 427.723,87.425 427.723,85.700 428.643,85.700 428.643,82.400 427.723,82.400 427.723,80.675 424.493,80.675 424.493,79.150 429.193,79.150 429.193,65.150 424.493,65.150 424.493,63.625 427.723,63.625 427.723,61.900 428.643,61.900 428.643,58.600 427.723,58.600 427.723,56.875 424.493,56.875 424.493,56.050" style="fill:none;stroke-width:0.050000mm;stroke:black"/>
<polygon points="17.525,55.625 17.525,69.625 31.525,69.625 31.525,55.625" style="fill:none;stroke-width:0.050000mm;stroke:black"/>
<polygon points="36.575,55.625 36.575,69.625 50.575,69.625 50.575,55.625" style="fill:none;stroke-width:0.050000mm;stroke:black"/>
<polygon points="55.625,55.625 55.625,69.625 69.625,69.625 69.625,55.625" style="fill:none;stroke-width:0.050000mm;stroke:black"/>
<polygon points="74.675,55.625 74.675,69.625 88.675,69.625 88.675,55.625" style="fill:none;stroke-width:0.050000mm;stroke:black"/>
<polygon points="103.250,55.625 103.250,69.625 117.250,69.625 117.250,55.625" style="fill:none;stroke-width:0.050000mm;stroke:black"/>
<polygon points="122.300,55.625 122.300,69.625 136.300,69.625 136.300,55.625" style="fill:none;stroke-width:0.050000mm;stroke:black"/>
<polygon points="155.637,55.625 155.637,69.625 169.637,69.625 169.637,55.625" style="fill:none;stroke-width:0.050000mm;stroke:black"/>
<polygon points="179.450,55.625 179.450,69.625 193.450,69.625 193.450,55.625" style="fill:none;stroke-width:0.050000mm;stroke:black"/>
<polygon points="198.500,55.625 198.500,69.625 212.500,69.625 212.500,55.625" style="fill:none;stroke-width:0.050000mm;stroke:black"/>
<polygon points="217.550,55.625 217.550,69.625 231.550,69.625 231.550,55.625" style="fill:none;stroke-width:0.050000mm;stroke:black"/>
<polygon points="236.600,55.625 236.600,69.625 250.600,69.625 250.600,55.625" style="fill:none;stroke-width:0.050000mm;stroke:black"/>
<polygon points="255.650,55.625 255.650,69.625 269.650,69.625 269.650,55.625" style="fill:none;stroke-width:0.050000mm;stroke:black"/>
<polygon points="274.700,55.625 274.700,69.625 288.700,69.625 288.700,55.625" style="fill:none;stroke-width:0.050000mm;stroke:black"/>
<polygon points="293.750,55.625 293.750,69.625 307.750,69.625 307.750,55.625" style="fill:none;stroke-width:0.050000mm;stroke:black"/>
<polygon points="312.800,55.625 312.800,69.625 326.800,69.625 326.800,55.625" style="fill:none;stroke-width:0.050000mm;stroke:black"/>
<polygon points="331.850,55.625 331.850,69.625 345.850,69.625 345.850,55.625" style="fill:none;stroke-width:0.050000mm;stroke:black"/>
<polygon points="350.900,55.625 350.900,69.625 364.900,69.625 364.900,55.625" style="fill:none;stroke-width:0.050000mm;stroke:black"/>
<polygon points="369.950,55.625 369.950,69.625 383.950,69.625 383.950,55.625" style="fill:none;stroke-width:0.050000mm;stroke:black"/>
<polygon points="389.000,55.625 389.000,69.625 403.000,69.625 403.000,55.625" style="fill:none;stroke-width:0.050000mm;stroke:black"/>
<polygon points="446.150,55.625 446.150,69.625 460.150,69.625 460.150,55.625" style="fill:none;stroke-width:0.050000mm;stroke:black"/>
<polygon points="465.200,55.625 465.200,69.625 479.200,69.625 479.200,55.625" style="fill:none;stroke-width:0.050000mm;stroke:black"/>
<polygon points="484.250,55.625 484.250,69.625 498.250,69.625 498.250,55.625" style="fill:none;stroke-width:0.050000mm;stroke:black"/>
<polygon points="512.825,55.625 512.825,69.625 526.825,69.625 526.825,55.625" style="fill:none;stroke-width:0.050000mm;stroke:black"/>
<polygon points="531.875,55.625 531.875,69.625 545.875,69.625 545.875,55.625" style="fill:none;stroke-width:0.050000mm;stroke:black"/>
<polygon points="550.925,55.625 550.925,69.625 564.925,69.625 564.925,55.625" style="fill:none;stroke-width:0.050000mm;stroke:black"/>
<polygon points="569.975,55.625 569.975,69.625 583.975,69.625 583.975,55.625" style="fill:none;stroke-width:0.050000mm;stroke:black"/>
<polygon points="408.050,36.575 408.050,41.275 406.525,41.275 406.525,38.045 404.800,38.045 404.800,37.125 401.500,37.125 401.500,38.045 399.775,38.045 399.775,41.275 398.950,41.275 398.950,44.075 399.775,44.075 399.775,50.345 401.500,50.345 401.500,51.325 404.800,51.325 404.800,50.345 406.525,50.345 406.525,45.875 408.050,45.875 408.050,50.575 422.050,50.575 422.050,45.875 423.575,45.875 423.575,50.345 425.300,50.345 425.300,51.325 428.600,51.325 428.600,50.345 430.325,50.345 430.325,44.075 431.150,44.075 431.150,41.275 430.325,41.275 430.325,38.045 428.600,38.045 428.600,37.125 425.300,37.125 425.300,38.045 423.575,38.045 423.575,41.275 422.050,41.275 422.050,36.575" style="fill:none;stroke-width:0.050000mm;stroke:black"/>
<polygon points="17.525,36.575 17.525,50.575 31.525,50.575 31.525,36.575" style="fill:none;stroke-width:0.050000mm;stroke:black"/>
<polygon points="36.575,36.575 36.575,50.575 50.575,50.575 50.575,36.575" style="fill:none;stroke-width:0.050000mm;stroke:black"/>
<polygon points="55.625,36.575 55.625,50.575 69.625,50.575 69.625,36.575" style="fill:none;stroke-width:0.050000mm;stroke:black"/>
<polygon points="74.675,36.575 74.675,50.575 88.675,50.575 88.675,36.575" style="fill:none;stroke-width:0.050000mm;stroke:black"/>
<polygon points="150.875,36.575 150.875,50.575 164.875,50.575 164.875,36.575" style="fill:none;stroke-width:0.050000mm;stroke:black"/>
<polygon points="169.925,36.575 169.925,50.575 183.925,50.575 183.925,36.575" style="fill:none;stroke-width:0.050000mm;stroke:black"/>
<polygon points="188.975,36.575 188.975,50.575 202.975,50.575 202.975,36.575" style="fill:none;stroke-width:0.050000mm;stroke:black"/>
<polygon points="208.025,36.575 208.025,50.575 222.025,50.575 222.025,36.575" style="fill:none;stroke-width:0.050000mm;stroke:black"/>
<polygon points="227.075,36.575 227.075,50.575 241.075,50.575 241.075,36.575" style="fill:none;stroke-width:0.050000mm;stroke:black"/>
<polygon points="246.125,36.575 246.125,50.575 260.125,50.575 260.125,36.575" style="fill:none;stroke-width:0.050000mm;stroke:black"/>
<polygon points="265.175,36.575 265.175,50.575 279.175,50.575 279.175,36.575" style="fill:none;stroke-width:0.050000mm;stroke:black"/>
<polygon points="284.225,36.575 284.225,50.575 298.225,50.575 298.225,36.575" style="fill:none;stroke-width:0.050000mm;stroke:black"/>
<polygon points="303.275,36.575 303.275,50.575 317.275,50.575 317.275,36.575" style="fill:none;stroke-width:0.050000mm;stroke:black"/>
<polygon points="322.325,36.575 322.325,50.575 336.325,50.575 336.325,36.575" style="fill:none;stroke-width:0.050000mm;stroke:black"/>
<polygon points="341.375,36.575 341.375,50.575 355.375,50.575 355.375,36.575" style="fill:none;stroke-width:0.050000mm;stroke:black"/>
<polygon points="360.425,36.575 360.425,50.575 374.425,50.575 374.425,36.575" style="fill:none;stroke-width:0.050000mm;stroke:black"/>
<polygon points="379.475,36.575 379.475,50.575 393.475,50.575 393.475,36.575" style="fill:none;stroke-width:0.050000mm;stroke:black"/>
<polygon points="446.150,36.575 446.150,50.575 460.150,50.575 460.150,36.575" style="fill:none;stroke-width:0.050000mm;stroke:black"/>
<polygon points="465.200,36.575 465.200,50.575 479.200,50.575 479.200,36.575" style="fill:none;stroke-width:0.050000mm;stroke:black"/>
<polygon points="484.250,36.575 484.250,50.575 498.250,50.575 498.250,36.575" style="fill:none;stroke-width:0.050000mm;stroke:black"/>
<polygon points="512.825,36.575 512.825,50.575 526.825,50.575 526.825,36.575" style="fill:none;stroke-width:0.050000mm;stroke:black"/>
<polygon points="531.875,36.575 531.875,50.575 545.875,50.575 545.875,36.575" style="fill:none;stroke-width:0.050000mm;stroke:black"/>
<polygon points="550.925,36.575 550.925,50.575 564.925,50.575 564.925,36.575" style="fill:none;stroke-width:0.050000mm;stroke:black"/>
<polygon points="569.975,36.575 569.975,50.575 583.975,50.575 583.975,36.575" style="fill:none;stroke-width:0.050000mm;stroke:black"/>
<polygon points="112.775,27.049 112.775,31.749 111.250,31.749 111.250,28.519 109.525,28.519 109.525,27.599 106.225,27.599 106.225,28.519 104.500,28.519 104.500,31.749 103.675,31.749 103.675,34.550 104.500,34.550 104.500,40.819 106.225,40.819 106.225,41.800 109.525,41.800 109.525,40.819 111.250,40.819 111.250,36.349 112.775,36.349 112.775,41.050 126.775,41.050 126.775,36.349 128.300,36.349 128.300,40.819 130.025,40.819 130.025,41.800 133.325,41.800 133.325,40.819 135.050,40.819 135.050,34.550 135.875,34.550 135.875,31.749 135.050,31.749 135.050,28.519 133.325,28.519 133.325,27.599 130.025,27.599 130.025,28.519 128.300,28.519 128.300,31.749 126.775,31.749 126.775,27.049" style="fill:none;stroke-width:0.050000mm;stroke:black"/>
<polygon points="17.525,17.525 17.525,31.525 31.525,31.525 31.525,17.525" style="fill:none;stroke-width:0.050000mm;stroke:black"/>
<polygon points="36.575,17.525 36.575,31.525 50.575,31.525 50.575,17.525" style="fill:none;stroke-width:0.050000mm;stroke:black"/>
<polygon points="55.625,17.525 55.625,31.525 69.625,31.525 69.625,17.525" style="fill:none;stroke-width:0.050000mm;stroke:black"/>
<polygon points="74.675,17.525 74.675,31.525 88.675,31.525 88.675,17.525" style="fill:none;stroke-width:0.050000mm;stroke:black"/>
<polygon points="150.875,17.525 150.875,31.525 164.875,31.525 164.875,17.525" style="fill:none;stroke-width:0.050000mm;stroke:black"/>
<polygon points="169.925,17.525 169.925,31.525 183.925,31.525 183.925,17.525" style="fill:none;stroke-width:0.050000mm;stroke:black"/>
<polygon points="188.975,17.525 188.975,31.525 202.975,31.525 202.975,17.525" style="fill:none;stroke-width:0.050000mm;stroke:black"/>
<polygon points="208.025,17.525 208.025,31.525 222.025,31.525 222.025,17.525" style="fill:none;stroke-width:0.050000mm;stroke:black"/>
<polygon points="227.075,17.525 227.075,31.525 241.075,31.525 241.075,17.525" style="fill:none;stroke-width:0.050000mm;stroke:black"/>
<polygon points="246.125,17.525 246.125,31.525 260.125,31.525 260.125,17.525" style="fill:none;stroke-width:0.050000mm;stroke:black"/>
<polygon points="265.175,17.525 265.175,31.525 279.175,31.525 279.175,17.525" style="fill:none;stroke-width:0.050000mm;stroke:black"/>
<polygon points="284.225,17.525 284.225,31.525 298.225,31.525 298.225,17.525" style="fill:none;stroke-width:0.050000mm;stroke:black"/>
<polygon points="303.275,17.525 303.275,31.525 317.275,31.525 317.275,17.525" style="fill:none;stroke-width:0.050000mm;stroke:black"/>
<polygon points="322.325,17.525 322.325,31.525 336.325,31.525 336.325,17.525" style="fill:none;stroke-width:0.050000mm;stroke:black"/>
<polygon points="341.375,17.525 341.375,31.525 355.375,31.525 355.375,17.525" style="fill:none;stroke-width:0.050000mm;stroke:black"/>
<polygon points="360.425,17.525 360.425,31.525 374.425,31.525 374.425,17.525" style="fill:none;stroke-width:0.050000mm;stroke:black"/>
<polygon points="379.475,17.525 379.475,31.525 393.475,31.525 393.475,17.525" style="fill:none;stroke-width:0.050000mm;stroke:black"/>
<polygon points="398.525,17.525 398.525,31.525 412.525,31.525 412.525,17.525" style="fill:none;stroke-width:0.050000mm;stroke:black"/>
<polygon points="417.575,17.525 417.575,31.525 431.575,31.525 431.575,17.525" style="fill:none;stroke-width:0.050000mm;stroke:black"/>
<polygon points="446.150,17.525 446.150,31.525 460.150,31.525 460.150,17.525" style="fill:none;stroke-width:0.050000mm;stroke:black"/>
<polygon points="465.200,17.525 465.200,31.525 479.200,31.525 479.200,17.525" style="fill:none;stroke-width:0.050000mm;stroke:black"/>
<polygon points="484.250,17.525 484.250,31.525 498.250,31.525 498.250,17.525" style="fill:none;stroke-width:0.050000mm;stroke:black"/>
<polygon points="512.825,17.525 512.825,31.525 526.825,31.525 526.825,17.525" style="fill:none;stroke-width:0.050000mm;stroke:black"/>
<polygon points="531.875,17.525 531.875,31.525 545.875,31.525 545.875,17.525" style="fill:none;stroke-width:0.050000mm;stroke:black"/>
<polygon points="550.925,17.525 550.925,31.525 564.925,31.525 564.925,17.525" style="fill:none;stroke-width:0.050000mm;stroke:black"/>
<polygon points="569.975,17.525 569.975,31.525 583.975,31.525 583.975,17.525" style="fill:none;stroke-width:0.050000mm;stroke:black"/>
<polygon points="125.082,7.097 124.524,7.381 124.082,7.824 123.798,8.381 123.700,9.000 123.798,9.618 124.082,10.175 124.524,10.618 125.082,10.902 125.700,11.000 126.318,10.902 126.875,10.618 127.318,10.175 127.602,9.618 127.700,9.000 127.602,8.381 127.318,7.824 126.875,7.381 126.318,7.097 125.700,7.000" style="fill:none;stroke-width:0.050000mm;stroke:black"/>
<polygon points="241.782,7.097 241.224,7.381 240.782,7.824 240.498,8.381 240.400,9.000 240.498,9.618 240.782,10.175 241.224,10.618 241.782,10.902 242.400,11.000 243.018,10.902 243.575,10.618 244.018,10.175 244.302,9.618 244.400,9.000 244.302,8.381 244.018,7.824 243.575,7.381 243.018,7.097 242.400,7.000" style="fill:none;stroke-width:0.050000mm;stroke:black"/>
<polygon points="358.482,7.097 357.925,7.381 357.482,7.824 357.198,8.381 357.100,9.000 357.198,9.618 357.482,10.175 357.925,10.618 358.482,10.902 359.100,11.000 359.718,10.902 360.276,10.618 360.718,10.175 361.002,9.618 361.100,9.000 361.002,8.381 360.718,7.824 360.276,7.381 359.718,7.097 359.100,7.000" style="fill:none;stroke-width:0.050000mm;stroke:black"/>
<polygon points="475.182,7.097 474.625,7.381 474.182,7.824 473.898,8.381 473.800,9.000 473.898,9.618 474.182,10.175 474.625,10.618 475.182,10.902 475.800,11.000 476.418,10.902 476.976,10.618 477.418,10.175 477.702,9.618 477.800,9.000 477.702,8.381 477.418,7.824 476.976,7.381 476.418,7.097 475.800,7.000" style="fill:none;stroke-width:0.050000mm;stroke:black"/>
<polygon points="591.882,7.097 591.325,7.381 590.882,7.824 590.598,8.381 590.501,9.000 590.598,9.618 590.882,10.175 591.325,10.618 591.882,10.902 592.501,11.000 593.119,10.902 593.676,10.618 594.119,10.175 594.403,9.618 594.501,9.000 594.403,8.381 594.119,7.824 593.676,7.381 593.119,7.097 592.501,7.000" style="fill:none;stroke-width:0.050000mm;stroke:black"/>
<polygon points="8.381,7.097 7.824,7.381 7.381,7.824 7.097,8.381 6.999,9.000 7.097,9.618 7.381,10.175 7.824,10.618 8.381,10.902 9.000,11.000 9.618,10.902 10.175,10.618 10.618,10.175 10.902,9.618 11.000,9.000 10.902,8.381 10.618,7.824 10.175,7.381 9.618,7.097 9.000,7.000" style="fill:none;stroke-width:0.050000mm;stroke:black"/>
</svg>
